<?xml version="1.0" standalone="no"?>
<!DOCTYPE svg PUBLIC "-//W3C//DTD SVG 20010904//EN"
 "http://www.w3.org/TR/2001/REC-SVG-20010904/DTD/svg10.dtd">
<svg version="1.0" xmlns="http://www.w3.org/2000/svg"
 width="700.000000pt" height="700.000000pt" viewBox="0 0 700.000000 700.000000"
 preserveAspectRatio="xMidYMid meet">
<metadata>
Created by potrace 1.14, written by Peter Selinger 2001-2017
</metadata>
<g transform="translate(0.000000,700.000000) scale(0.100000,-0.100000)"
fill="#000000" stroke="none">
<path d="M0 3500 l0 -3500 3500 0 3500 0 0 3500 0 3500 -3500 0 -3500 0 0
-3500z m3300 1775 c145 -62 250 -156 310 -280 51 -106 70 -204 70 -362 0 -190
-23 -329 -121 -753 -57 -247 -101 -452 -96 -456 2 -2 36 54 77 124 448 773
738 1086 1089 1178 181 47 443 -15 548 -129 96 -104 127 -210 127 -437 0 -191
-10 -262 -94 -710 -83 -444 -94 -522 -94 -695 0 -208 23 -291 107 -382 62 -67
107 -87 197 -88 162 0 273 100 357 323 37 100 52 122 88 138 106 44 209 -26
255 -174 45 -146 4 -329 -113 -502 -42 -61 -151 -174 -213 -220 -250 -186
-577 -210 -869 -63 -225 114 -353 309 -412 626 -26 136 -23 470 6 682 35 263
123 661 215 975 14 46 24 86 22 87 -6 6 -225 -214 -301 -302 -160 -185 -364
-473 -527 -745 -130 -216 -251 -441 -464 -862 -186 -369 -210 -412 -255 -452
-83 -75 -177 -83 -291 -25 -58 30 -114 84 -139 136 -22 45 -22 50 -15 317 18
714 108 1583 237 2285 16 90 28 165 26 168 -6 6 -147 -162 -239 -287 -330
-445 -640 -1045 -1071 -2070 -231 -549 -240 -565 -324 -606 -45 -22 -62 -26
-104 -21 -70 8 -156 50 -207 100 -71 68 -72 74 -72 279 0 457 -38 843 -120
1229 -16 78 -30 153 -30 167 0 37 61 89 128 108 150 44 303 -26 375 -172 29
-57 57 -180 57 -251 1 -45 4 -39 64 117 415 1086 987 1869 1476 2017 107 33
247 28 340 -12z"/>
</g>
</svg>
