<?xml version="1.0" encoding="UTF-8" standalone="no"?>
<!DOCTYPE svg PUBLIC "-//W3C//DTD SVG 1.1//EN" "http://www.w3.org/Graphics/SVG/1.1/DTD/svg11.dtd">
<svg width="100%" height="100%" viewBox="0 0 64 64" version="1.1" xmlns="http://www.w3.org/2000/svg" xmlns:xlink="http://www.w3.org/1999/xlink" xml:space="preserve" xmlns:serif="http://www.serif.com/" style="fill-rule:evenodd;clip-rule:evenodd;stroke-linejoin:round;stroke-miterlimit:2;">
    <g id="Layer1" transform="matrix(0.652395,0,0,0.652395,-0.0080238,-0.0078101)">
        <g transform="matrix(1.07684,0,0,1.07684,-3.72972,-5.71251)">
            <rect x="3.475" y="5.316" width="91.1" height="91.1" style="fill:rgb(37,99,235);"/>
        </g>
        <g transform="matrix(0.75441,0,0,0.75441,12.0494,12.0494)">
            <path d="M92.727,63.157C91.547,63.704 91.59,66.329 89.769,68.88C87.434,72.149 83.895,72.401 81.683,70.667C72.562,63.515 90.731,32.463 77.893,27.044C64.758,21.5 55.633,38.172 48.247,50.856C50.621,37.093 57.834,21.248 45.325,16.061C34.356,11.513 19.464,30.971 10.451,56.481C10.6,44.244 -0.282,46.935 0.006,49.915C0.193,51.835 3.194,60.607 2.735,78.388C2.672,80.928 9.293,85.452 11.874,80.318C15.901,72.307 26.395,41.838 40.408,26.959C36.912,44.783 35.179,65.345 35.356,77.705C35.392,80.184 41.579,84.789 44.79,79.401C48.178,73.717 58.129,49.112 72.497,36.726C67.072,55.066 63.6,74.822 75.352,80.811C87.248,86.873 96.992,77.257 98.05,69.744C98.571,66.04 96.291,61.506 92.727,63.157Z" style="fill:white;fill-rule:nonzero;"/>
        </g>
    </g>
</svg>
